<svg width="249" height="249" viewBox="0 0 249 249" fill="none" xmlns="http://www.w3.org/2000/svg">
<g clip-path="url(#clip0_4_80)">
<path d="M30.339 138.05C30.339 190.088 72.559 232.308 124.598 232.308C176.636 232.308 218.856 190.088 218.856 138.05C218.856 86.0111 176.636 43.791 124.598 43.791C72.559 43.791 30.339 86.2074 30.339 138.05ZM85.1268 69.9085H85.3232C96.3201 63.6246 109.084 59.8935 122.83 59.5008C123.027 59.3044 123.223 59.3044 123.419 59.3044C123.616 59.3044 123.812 59.3044 124.009 59.5008C124.205 59.5008 124.401 59.5008 124.598 59.5008C138.933 59.5008 152.286 63.4282 163.872 69.9085C163.872 69.9085 163.872 69.9085 164.068 69.9085C164.068 69.9085 164.068 69.9085 164.265 69.9085C187.633 83.4582 203.539 108.987 203.539 137.853C203.539 138.05 203.539 138.442 203.539 138.639C203.539 138.639 203.539 138.639 203.539 138.835C202.95 181.841 167.996 216.402 124.99 216.402C124.598 216.402 124.401 216.402 124.009 216.402C110.066 216.206 97.1055 212.475 85.9123 205.994C85.9123 205.994 85.9123 205.994 85.716 205.994C85.716 205.994 85.716 205.994 85.5196 205.798C62.544 192.445 46.8343 167.702 46.4415 139.228C46.2451 139.032 46.2451 138.835 46.2451 138.639C46.2451 138.442 46.2451 138.246 46.4415 138.05C46.4415 137.853 46.4415 137.853 46.4415 137.657C45.8524 109.183 61.5622 83.8509 85.1268 69.9085C85.1268 70.1049 85.1268 70.1049 85.1268 69.9085Z" fill="#55D8C1"/>
<path d="M63.1332 172.415C63.526 172.218 64.1151 172.218 64.5078 172.808C64.7042 173.2 64.7042 173.789 64.1151 174.182L58.6167 177.324C65.097 188.321 74.3264 197.55 85.3233 204.031L88.4653 198.532C88.6616 198.14 89.2507 197.943 89.8399 198.14C90.2326 198.336 90.429 198.925 90.2326 199.514L87.0906 205.013C97.6947 210.904 108.888 214.438 122.634 214.831V198.336C122.634 197.747 123.027 197.354 123.616 197.354C124.205 197.354 124.598 197.747 124.598 198.336V216.795C124.598 216.795 124.401 216.795 124.598 216.795C138.147 216.795 150.912 212.278 162.105 205.994L159.159 200.3C158.963 199.907 158.963 198.925 159.552 198.729C159.945 198.532 160.534 198.532 160.927 198.925L163.872 204.031C174.869 197.55 184.099 188.321 190.579 177.324L185.08 174.182C184.688 173.986 184.491 173.397 184.688 172.808C184.884 172.415 185.473 172.218 186.062 172.415L191.561 175.753C197.452 165.149 200.987 153.956 201.379 140.21H184.884C184.295 140.21 183.902 139.817 183.902 139.228C183.902 138.639 184.295 138.246 184.884 138.246H201.379C201.379 124.5 197.845 111.736 191.561 100.739L186.062 103.881C185.866 103.881 185.67 104.077 185.67 104.077C185.277 104.077 185.08 103.881 184.884 103.488C184.688 103.095 184.688 102.506 185.277 102.114L190.775 98.9716C184.295 87.9748 175.065 78.7453 164.069 72.265L162.89 74.2287L160.73 77.7634C160.534 78.1562 160.141 78.1562 159.945 78.1562C159.748 78.1562 159.552 78.1562 159.552 77.9598C159.356 77.9598 159.356 77.7634 159.356 77.7634C159.159 77.3707 159.159 76.9779 159.356 76.7815L161.516 73.2468L162.694 71.4795C151.697 65.1956 138.737 61.8573 125.187 61.8573V77.9598C125.187 78.5489 124.794 78.9416 124.205 78.9416C123.616 78.9416 123.223 78.5489 123.223 77.9598V61.6609C109.477 62.0536 98.2839 65.5883 87.6798 71.4795L90.8217 76.9779C91.0181 77.3707 90.8217 77.9598 90.429 78.3525C90.2326 78.3525 90.0362 78.5489 89.8399 78.5489C89.4471 78.5489 89.2507 78.3525 89.0544 78.1562L85.9124 72.6577C74.9156 79.138 65.6861 88.3675 59.2058 99.3644L64.7042 102.506C65.097 102.703 65.2933 103.292 65.097 103.881C64.9006 104.274 64.5078 104.274 64.3115 104.274C64.1151 104.274 63.9187 104.274 63.9187 104.077L58.4203 101.132C52.1364 112.129 48.6017 124.893 48.6017 138.639H64.9006C65.4897 138.639 65.8824 139.032 65.8824 139.621C65.8824 140.21 65.4897 140.603 64.9006 140.603H48.6017C48.9944 154.349 52.3328 165.542 58.4203 176.146L63.1332 172.415ZM118.707 130.588C118.707 130.391 118.707 130.391 118.707 130.195V91.3131C118.707 88.5639 120.867 86.4038 123.616 86.4038C126.365 86.4038 128.525 88.5639 128.525 91.3131V129.213C130.489 130.195 132.256 132.159 133.238 134.122H171.334C174.084 134.122 176.244 136.282 176.244 139.032C176.244 141.781 174.084 143.941 171.334 143.941H132.256V143.744C130.489 146.101 127.74 147.476 124.598 147.476C119.296 147.476 115.172 143.155 115.172 137.853C114.976 135.104 116.546 132.355 118.707 130.588Z" fill="#F4EFEF"/>
<path d="M131.274 134.711C130.489 133.14 129.114 131.766 127.543 131.177C127.151 130.98 126.758 130.98 126.561 130.784C125.972 130.587 125.187 130.391 124.401 130.391C120.278 130.391 116.743 133.729 116.743 138.05C116.743 142.173 120.081 145.708 124.401 145.708C128.525 145.708 132.06 142.37 132.06 138.05C132.06 137.264 131.863 136.479 131.667 135.89C131.667 135.497 131.471 135.104 131.274 134.711Z" fill="#A8EBDF"/>
<path d="M127.347 90.9203C127.151 89.5457 125.972 88.5638 124.598 88.5638C123.027 88.5638 121.652 89.9384 121.652 91.5094V130.391H127.543V91.5094C127.543 91.3131 127.347 91.1167 127.347 90.9203Z" fill="#A8EBDF"/>
<path d="M171.727 136.282C171.531 136.282 171.334 136.282 171.138 136.282H132.453V141.781V142.174H171.138C172.709 142.174 174.084 140.799 174.084 139.228C174.084 137.853 173.102 136.479 171.727 136.282Z" fill="#A8EBDF"/>
<path d="M73.9337 43.9874L108.495 23.9574C100.64 11.1932 86.5015 3.14197 71.5772 3.14197C64.1151 3.14197 56.6529 5.10569 49.9763 8.83676C39.9613 14.5316 32.8919 23.9574 29.7499 35.1506C26.8044 45.9511 27.9826 57.3407 33.481 67.1593L73.541 44.3801V43.9874H73.9337Z" fill="#A8EBDF"/>
<path d="M219.445 34.9543C216.5 23.7611 209.234 14.5316 199.219 8.64043C192.739 4.90936 185.277 2.74927 177.618 2.74927C162.498 2.74927 148.359 10.8005 140.7 23.5647L175.262 43.5947V43.3983L215.518 66.5702C221.016 57.3407 222.391 45.9512 219.445 34.9543Z" fill="#55D8C1" fill-opacity="0.51"/>
<path d="M64.9005 243.502L87.4833 226.81C83.9486 225.435 80.6103 223.668 77.4683 221.901L64.9005 243.502Z" fill="#AEB1B4"/>
<path d="M77.4683 221.115L77.0756 221.901C80.4139 223.668 83.7522 225.435 87.2869 226.81L88.0724 226.221C84.5377 224.65 81.3958 222.883 77.4683 221.115Z" fill="#CCCCCC"/>
<path d="M88.2688 226.221L77.8611 221.115C81.1994 222.883 84.7341 224.65 88.2688 226.221Z" fill="#CCCCCC"/>
<path d="M171.923 221.704C168.585 223.472 165.247 225.239 161.908 226.614L184.491 243.305L171.923 221.704Z" fill="#AEB1B4"/>
<path d="M160.927 226.024L161.908 226.613C165.443 225.239 168.782 223.472 171.923 221.704L171.531 220.919C167.996 222.882 164.461 224.65 160.927 226.024Z" fill="#CCCCCC"/>
<path d="M171.334 220.919L160.73 226.024C164.461 224.65 167.996 222.882 171.334 220.919Z" fill="#CCCCCC"/>
<path d="M124.598 235.254C70.9881 235.254 27.3934 191.659 27.3934 138.05C27.3934 84.4401 70.9881 40.8455 124.598 40.8455C178.207 40.8455 221.802 84.4401 221.802 138.05C221.606 191.659 178.011 235.254 124.598 235.254ZM124.598 44.9693C73.1482 44.9693 31.3209 86.7966 31.3209 138.246C31.3209 189.696 73.1482 231.523 124.598 231.523C176.047 231.523 217.875 189.696 217.875 138.246C217.678 86.7966 175.851 44.9693 124.598 44.9693Z" fill="black"/>
<path d="M124.598 217.777C80.6103 217.777 44.8706 182.037 44.8706 138.05C44.8706 94.0623 80.6103 58.3225 124.598 58.3225C168.585 58.3225 204.325 94.0623 204.325 138.05C204.128 182.037 168.389 217.777 124.598 217.777ZM124.598 62.4463C82.7704 62.4463 48.798 96.4187 48.798 138.246C48.798 180.073 82.7704 214.046 124.598 214.046C166.425 214.046 200.397 180.073 200.397 138.246C200.201 96.4187 166.229 62.4463 124.598 62.4463Z" fill="black"/>
<path d="M124.598 148.654C118.707 148.654 113.994 143.941 113.994 138.05C113.994 132.158 118.707 127.446 124.598 127.446C130.489 127.446 135.202 132.158 135.202 138.05C135.005 143.941 130.293 148.654 124.598 148.654ZM124.598 131.569C120.867 131.569 117.921 134.515 117.921 138.246C117.921 141.977 120.867 144.923 124.598 144.923C128.329 144.923 131.274 141.977 131.274 138.246C131.078 134.515 128.132 131.569 124.598 131.569Z" fill="black"/>
<path d="M63.9186 141.192H48.2088C47.0306 141.192 46.2451 140.406 46.2451 139.228C46.2451 138.05 47.0306 137.264 48.2088 137.264H63.9186C65.0969 137.264 65.8823 138.05 65.8823 139.228C65.8823 140.406 64.9005 141.192 63.9186 141.192Z" fill="black"/>
<path d="M201.379 141.192H185.67C184.491 141.192 183.706 140.406 183.706 139.228C183.706 138.05 184.491 137.264 185.67 137.264H201.379C202.558 137.264 203.343 138.05 203.343 139.228C203.343 140.406 202.361 141.192 201.379 141.192Z" fill="black"/>
<path d="M124.598 217.188C123.42 217.188 122.634 216.402 122.634 215.224V199.514C122.634 198.336 123.42 197.551 124.598 197.551C125.776 197.551 126.561 198.336 126.561 199.514V215.224C126.561 216.206 125.58 217.188 124.598 217.188Z" fill="black"/>
<path d="M124.598 79.3344C123.42 79.3344 122.634 78.5489 122.634 77.3706V61.6609C122.634 60.4826 123.42 59.6971 124.598 59.6971C125.776 59.6971 126.561 60.4826 126.561 61.6609V77.3706C126.561 78.5489 125.58 79.3344 124.598 79.3344Z" fill="black"/>
<path d="M89.2507 79.138C88.6616 79.138 87.8761 78.7452 87.4833 78.1561L83.7523 71.8722C83.1631 70.8903 83.5559 69.7121 84.5377 69.123C85.5196 68.5339 86.6978 68.9266 87.287 69.9085L91.018 76.1924C91.6071 77.1742 91.2144 78.3525 90.2325 78.9416C90.0362 79.138 89.6434 79.138 89.2507 79.138Z" fill="black"/>
<path d="M163.283 207.369C162.694 207.369 161.908 206.976 161.516 206.387L157.981 200.3C157.392 199.318 157.785 198.14 158.766 197.55C159.748 196.961 160.927 197.354 161.516 198.336L165.05 204.424C165.64 205.405 165.247 206.584 164.265 207.173C164.069 207.173 163.676 207.369 163.283 207.369Z" fill="black"/>
<path d="M57.4384 178.699C56.8493 178.699 56.0638 178.306 55.6711 177.717C55.082 176.735 55.4747 175.557 56.4566 174.968L62.5441 171.433C63.526 170.844 64.7042 171.237 65.2933 172.218C65.8824 173.2 65.4897 174.378 64.5078 174.968L58.4203 178.502C58.2239 178.699 57.8312 178.699 57.4384 178.699Z" fill="black"/>
<path d="M185.473 104.863C184.884 104.863 184.098 104.47 183.706 103.881C183.117 102.899 183.509 101.721 184.491 101.132L190.579 97.597C191.561 97.0079 192.739 97.4006 193.328 98.3825C193.917 99.3643 193.524 100.543 192.542 101.132L186.455 104.666C186.062 104.863 185.866 104.863 185.473 104.863Z" fill="black"/>
<path d="M191.561 178.699C191.168 178.699 190.972 178.699 190.579 178.502L184.491 174.968C183.509 174.379 183.313 173.2 183.706 172.218C184.295 171.237 185.473 171.04 186.455 171.433L192.543 174.968C193.524 175.557 193.721 176.735 193.328 177.717C192.935 178.502 192.15 178.699 191.561 178.699Z" fill="black"/>
<path d="M63.526 104.863C63.1332 104.863 62.9369 104.863 62.5441 104.666L56.4566 101.132C55.4747 100.543 55.2783 99.3643 55.6711 98.3825C56.2602 97.4006 57.4384 97.2043 58.4203 97.597L64.5078 101.132C65.4897 101.721 65.6861 102.899 65.2933 103.881C64.9006 104.47 64.3115 104.863 63.526 104.863Z" fill="black"/>
<path d="M159.748 79.138C159.356 79.138 159.159 79.138 158.767 78.9416C157.785 78.3525 157.588 77.1743 157.981 76.1924L161.712 69.9085C162.301 68.9266 163.479 68.7303 164.461 69.123C165.443 69.7121 165.64 70.8903 165.247 71.8722L161.516 78.1561C161.123 78.7452 160.337 79.138 159.748 79.138Z" fill="black"/>
<path d="M85.716 207.369C85.3233 207.369 85.1269 207.369 84.7342 207.173C83.7523 206.584 83.5559 205.405 83.9487 204.424L87.6798 198.14C88.2689 197.158 89.4471 196.961 90.429 197.354C91.4108 197.943 91.6072 199.122 91.2145 200.103L87.4834 206.387C87.0906 206.976 86.3051 207.369 85.716 207.369Z" fill="black"/>
<path d="M128.525 132.355C127.347 132.355 126.561 131.569 126.561 130.391V91.5095C126.561 90.5276 125.58 89.5457 124.598 89.5457C123.616 89.5457 122.634 90.3312 122.634 91.5095V130.391C122.634 131.569 121.848 132.355 120.67 132.355C119.492 132.355 118.707 131.569 118.707 130.391V91.5095C118.707 88.3675 121.259 85.6183 124.598 85.6183C127.936 85.6183 130.489 88.1711 130.489 91.5095V130.391C130.489 131.569 129.507 132.355 128.525 132.355Z" fill="black"/>
<path d="M171.138 145.119H132.453C131.274 145.119 130.489 144.334 130.489 143.155C130.489 141.977 131.274 141.192 132.453 141.192H171.138C172.12 141.192 173.102 140.21 173.102 139.228C173.102 138.246 172.316 137.264 171.138 137.264H133.631C132.453 137.264 131.667 136.479 131.667 135.301C131.667 134.122 132.453 133.337 133.631 133.337H171.138C174.28 133.337 177.029 135.89 177.029 139.228C177.029 142.566 174.476 145.119 171.138 145.119Z" fill="black"/>
<path d="M73.9336 59.5008C73.3445 59.5008 72.559 59.108 72.1662 58.5189L66.8642 49.2894C66.2751 48.3076 66.6678 47.1293 67.6497 46.5402C68.6315 45.9511 69.8098 46.3438 70.3989 47.3257L75.7009 56.5552C76.2901 57.5371 75.8973 58.7153 74.9155 59.3044C74.5227 59.3044 74.3263 59.5008 73.9336 59.5008Z" fill="black"/>
<path d="M79.8248 55.9661C79.2357 55.9661 78.4502 55.5733 78.0574 54.9842L72.559 45.5584C71.9699 44.5765 72.3627 43.3983 73.3445 42.8091C74.3264 42.22 75.5046 42.6128 76.0937 43.5946L81.5921 53.0205C82.1813 54.0024 81.7885 55.1806 80.8067 55.7697C80.4139 55.9661 80.2175 55.9661 79.8248 55.9661Z" fill="black"/>
<path d="M33.2846 70.3013C32.6955 70.3013 31.91 69.9085 31.5172 69.3194C25.4297 58.7153 23.6624 46.1475 27.0007 34.3652C30.339 22.5828 37.8012 12.5678 48.6016 6.28392C59.2057 0.196385 71.7736 -1.57097 83.5559 1.57099C95.5346 4.71295 105.353 12.3715 111.637 23.1719C112.226 24.1538 111.833 25.332 110.852 25.9211L34.2665 70.1049C33.8737 70.3013 33.6773 70.3013 33.2846 70.3013ZM71.5772 3.92746C64.3114 3.92746 57.0456 5.89118 50.5654 9.62225C40.7467 15.317 33.8737 24.3502 30.9281 35.347C28.1789 45.5584 29.3572 56.3588 34.2665 65.7847L107.317 23.5647C101.622 14.7279 92.9818 8.24765 82.7704 5.49843C78.843 4.51657 75.1119 3.92746 71.5772 3.92746Z" fill="black"/>
<path d="M175.262 59.5008C174.869 59.5008 174.673 59.5008 174.28 59.3044C173.298 58.7153 173.102 57.5371 173.494 56.5552L178.796 47.3257C179.386 46.3439 180.564 46.1475 181.546 46.5402C182.527 46.933 182.724 48.3076 182.331 49.2894L177.029 58.5189C176.636 59.1081 175.851 59.5008 175.262 59.5008Z" fill="black"/>
<path d="M169.371 55.9661C168.978 55.9661 168.781 55.9661 168.389 55.7697C167.407 55.1806 167.21 54.0024 167.603 53.0205L173.102 43.5946C173.691 42.6128 174.869 42.4164 175.851 42.8092C176.833 43.3983 177.029 44.5765 176.636 45.5584L171.138 54.9842C170.745 55.5733 169.96 55.9661 169.371 55.9661Z" fill="black"/>
<path d="M215.911 70.3013C215.518 70.3013 215.322 70.3013 214.929 70.1049L138.344 25.9211C137.362 25.332 137.166 24.1538 137.558 23.1719C143.646 12.5678 153.661 4.90931 165.64 1.57098C177.618 -1.57098 189.99 0 200.594 6.28391C222.587 19.0481 230.246 47.3257 217.482 69.3194C217.285 69.7121 216.696 70.1049 216.304 70.3013C216.304 70.3013 216.107 70.3013 215.911 70.3013ZM142.075 23.3683L215.125 65.5883C225.337 45.7547 218.267 20.8155 198.63 9.62224C188.811 3.92744 177.422 2.55284 166.621 5.30205C156.41 8.24763 147.77 14.5315 142.075 23.3683Z" fill="black"/>
<path d="M61.7586 249C61.3659 249 60.7767 248.804 60.384 248.411C59.5985 247.822 59.5985 246.84 59.9913 246.054L75.3083 219.544C75.8974 218.562 77.0756 218.366 78.0575 218.759C79.0394 219.348 79.2357 220.526 78.843 221.508L68.2389 239.771L88.2689 224.846C89.0543 224.257 90.4289 224.454 91.0181 225.239C91.6072 226.025 91.4108 227.399 90.6253 227.988L62.9368 248.411C62.5441 248.804 62.1513 249 61.7586 249Z" fill="black"/>
<path d="M187.437 249C187.044 249 186.651 248.804 186.259 248.607L158.57 228.185C157.785 227.595 157.588 226.221 158.177 225.435C158.766 224.65 160.141 224.453 160.927 225.043L180.957 239.967L170.352 221.704C169.763 220.722 170.156 219.544 171.138 218.955C172.12 218.366 173.298 218.759 173.887 219.741L189.204 246.251C189.597 247.036 189.597 248.018 188.811 248.607C188.419 248.804 188.026 249 187.437 249Z" fill="black"/>
<path d="M159.748 79.1381C159.356 79.1381 159.159 79.1381 158.767 78.9417C157.785 78.3526 157.588 77.1743 157.981 76.1925L161.319 70.3013C161.908 69.3194 163.087 69.1231 164.069 69.5158C165.05 70.1049 165.247 71.2832 164.854 72.265L161.516 78.1562C161.123 78.7453 160.337 79.1381 159.748 79.1381Z" fill="black"/>
</g>
<defs>
<clipPath id="clip0_4_80">
<rect width="249" height="249" fill="white"/>
</clipPath>
</defs>
</svg>
